<?xml version="1.0" encoding="UTF-8"?>
<svg version="1.1" xmlns="http://www.w3.org/2000/svg" width="200" height="200">
<path d="M0 0 C66 0 132 0 200 0 C200 66 200 132 200 200 C134 200 68 200 0 200 C0 134 0 68 0 0 Z " fill="#3B33EA" transform="translate(0,0)"/>
<path d="M0 0 C1.10601562 -0.00773437 2.21203125 -0.01546875 3.3515625 -0.0234375 C8.72641429 -0.01051718 13.36803114 0.03639271 18.375 2.25 C18.375 2.58 18.375 2.91 18.375 3.25 C17.14136719 3.47042969 17.14136719 3.47042969 15.8828125 3.6953125 C3.6761368 6.14792401 -5.44874508 10.81181102 -12.625 21.25 C-19.92344859 33.18322981 -19.17589575 48.72306899 -16.99609375 62.11328125 C-13.51272316 74.1566836 -4.7657943 81.57646257 5.375 88.25 C5.045 89.9 4.715 91.55 4.375 93.25 C-8.46940865 98.69847999 -26.36526236 96.27698444 -39.1796875 91.671875 C-43.41471321 89.92408661 -47.04022021 88.0936955 -50.625 85.25 C-51.223125 84.84523438 -51.82125 84.44046875 -52.4375 84.0234375 C-58.93826686 79.231924 -62.12249383 71.75751851 -64.625 64.25 C-65.74745206 48.7601616 -63.16938834 36.86407 -53.625 24.25 C-52.92375 23.26 -52.2225 22.27 -51.5 21.25 C-38.50181478 6.44765027 -19.11881919 -0.13463957 0 0 Z " fill="#625EEE" transform="translate(110.625,49.75)"/>
<path d="M0 0 C1.10601562 -0.00773437 2.21203125 -0.01546875 3.3515625 -0.0234375 C8.72641429 -0.01051718 13.36803114 0.03639271 18.375 2.25 C18.375 2.58 18.375 2.91 18.375 3.25 C17.14136719 3.47042969 17.14136719 3.47042969 15.8828125 3.6953125 C3.8093683 6.12115464 -5.64075521 10.76585526 -12.625 21.25 C-14.62276335 25.48952834 -16.18276294 29.79471729 -17.625 34.25 C-17.99882813 35.37019531 -18.37265625 36.49039063 -18.7578125 37.64453125 C-19.04398438 38.50433594 -19.33015625 39.36414063 -19.625 40.25 C-20.285 40.25 -20.945 40.25 -21.625 40.25 C-22.00205078 41.12978516 -22.00205078 41.12978516 -22.38671875 42.02734375 C-25.58025968 47.75959861 -32.56947466 53.0340705 -38.80078125 54.90234375 C-45.93196521 56.59918846 -52.9791707 57.03571231 -59.6875 53.75 C-62.5805331 51.51023244 -62.5805331 51.51023244 -62.96875 49.23828125 C-63.57547049 38.84819286 -58.87137683 29.89268761 -52.4375 21.9375 C-38.20702185 7.20328811 -20.27657281 -0.14279277 0 0 Z " fill="#A6A6F5" transform="translate(110.625,49.75)"/>
<path d="M0 0 C0.3403125 0.9590625 0.3403125 0.9590625 0.6875 1.9375 C1.82348208 4.25667205 1.82348208 4.25667205 4.40625 4.546875 C5.2621875 4.69640625 6.118125 4.8459375 7 5 C13.6898539 10.04573727 17.17291623 18.0501555 19 26 C20.79086591 41.73968328 18.58613062 56.12017321 9 69 C8 70 8 70 5.4375 70.0625 C4.633125 70.041875 3.82875 70.02125 3 70 C1.76768836 67.53537673 1.81666258 65.35885935 1.70996094 62.64257812 C1.22815872 50.49230145 -1.01486447 40.6151498 -9.375 31.375 C-10.674375 30.199375 -10.674375 30.199375 -12 29 C-12.51304688 28.48308594 -13.02609375 27.96617188 -13.5546875 27.43359375 C-20.73233749 20.57017268 -29.4922177 20.67531912 -39 20 C-37.80909134 13.30113878 -32.06474553 8.52830816 -26.8125 4.625 C-18.80880548 -0.38411494 -9.17914973 -0.36554136 0 0 Z " fill="#3C2DC2" transform="translate(136,54)"/>
<path d="M0 0 C0.66 0 1.32 0 2 0 C2.08767555 3.37483413 2.14061628 6.74937215 2.1875 10.125 C2.21263672 11.07632813 2.23777344 12.02765625 2.26367188 13.0078125 C2.33408131 19.76711851 1.49574168 24.12611564 -3.0625 29.375 C-5 31 -5 31 -7 31 C-7 31.66 -7 32.32 -7 33 C-14.55287706 38.03525138 -22.26157864 37.85406382 -31 37 C-35.17840547 36.07757423 -37.63269245 34.64626973 -40.359375 31.36328125 C-44.47642516 24.18664244 -43.9836548 14.02620461 -43 6 C-41.9765625 3.45703125 -41.9765625 3.45703125 -41 2 C-40.98582031 2.61488281 -40.97164062 3.22976562 -40.95703125 3.86328125 C-40.75652169 8.93132343 -40.75652169 8.93132343 -38.0625 13 C-30.44182277 15.4883844 -22.58590055 15.77561633 -15 13 C-8.8390622 9.58225348 -4.30118238 5.51088992 0 0 Z " fill="#7B7EEF" transform="translate(89,90)"/>
<path d="M0 0 C0.99 0 1.98 0 3 0 C5.42584619 6.19999868 6.49518812 11.60187991 6.375 18.25 C6.3586853 19.48943359 6.3586853 19.48943359 6.34204102 20.75390625 C6.03591827 32.63839981 3.77040672 44.22959328 -5 53 C-6.66617115 53.04063832 -8.33388095 53.042721 -10 53 C-11.23231164 50.53537673 -11.18333742 48.35885935 -11.29003906 45.64257812 C-11.68770793 35.61400917 -12.94102355 27.23087316 -18.9140625 18.88671875 C-20.21458296 16.6271814 -20.60321597 14.56146135 -21 12 C-20.28714844 11.98582031 -19.57429687 11.97164062 -18.83984375 11.95703125 C-12.33157342 11.63293165 -7.56070954 10.91153335 -3 6 C-1.05447211 2.86653522 -1.05447211 2.86653522 0 0 Z " fill="#3C2AAF" transform="translate(149,71)"/>
<path d="M0 0 C0.33 0.99 0.66 1.98 1 3 C-0.66015625 5.2421875 -0.66015625 5.2421875 -3.0625 7.875 C-13.03050764 19.55358617 -15.96231281 31.7370554 -15.23095703 46.75585938 C-14.4190822 54.64460507 -10.43996293 61.42055084 -5 67 C-4.236875 67.78375 -3.47375 68.5675 -2.6875 69.375 C-2.130625 69.91125 -1.57375 70.4475 -1 71 C-2.67299959 70.34938905 -4.33859237 69.67966676 -6 69 C-6.7425 68.731875 -7.485 68.46375 -8.25 68.1875 C-10 67 -10 67 -10.75 64.375 C-10.8325 63.59125 -10.915 62.8075 -11 62 C-11.99 61.67 -12.98 61.34 -14 61 C-14.12375 60.278125 -14.2475 59.55625 -14.375 58.8125 C-14.92222497 55.9843652 -14.92222497 55.9843652 -16.0625 53.375 C-17 51 -17 51 -17 48 C-17.66 47.67 -18.32 47.34 -19 47 C-18.34 47 -17.68 47 -17 47 C-17.03480469 45.80503906 -17.06960937 44.61007813 -17.10546875 43.37890625 C-17.32390881 32.71791104 -17.17520249 24.11577511 -11 15 C-11.66 14.67 -12.32 14.34 -13 14 C-12.34 14 -11.68 14 -11 14 C-11.33 12.68 -11.66 11.36 -12 10 C-10.02 9.34 -8.04 8.68 -6 8 C-4.99782936 4.41672247 -4.99782936 4.41672247 -6 1 C-4 0 -4 0 0 0 Z " fill="#252ED6" transform="translate(62,65)"/>
<path d="M0 0 C3.90796817 3.58048481 5.3477076 8.04312281 7 13 C6.67 13.66 6.34 14.32 6 15 C5.7724985 16.87056791 5.59037189 18.74685958 5.4375 20.625 C5.35371094 21.62789062 5.26992187 22.63078125 5.18359375 23.6640625 C5.09271484 24.82035156 5.09271484 24.82035156 5 26 C5.66 26.33 6.32 26.66 7 27 C6.67 27.33 6.34 27.66 6 28 C5.835 29.155 5.67 30.31 5.5 31.5 C5 35 5 35 4 36 C3.855625 37.051875 3.71125 38.10375 3.5625 39.1875 C3.0469677 42.68166337 2.20957019 45.69384149 1 49 C0.34 49 -0.32 49 -1 49 C-1.66 50.32 -2.32 51.64 -3 53 C-3.66 53 -4.32 53 -5 53 C-5.33 53.99 -5.66 54.98 -6 56 C-8.31 56 -10.62 56 -13 56 C-13 55.34 -13 54.68 -13 54 C-13.66 54 -14.32 54 -15 54 C-15 47.73 -15 41.46 -15 35 C-12.64641749 37.35358251 -12.72128096 37.92968394 -12.5859375 41.1328125 C-12.54726562 41.93847656 -12.50859375 42.74414062 -12.46875 43.57421875 C-12.42234375 44.83685547 -12.42234375 44.83685547 -12.375 46.125 C-12.33632812 46.97449219 -12.29765625 47.82398438 -12.2578125 48.69921875 C-12.16343506 50.79911684 -12.08062414 52.89952891 -12 55 C-8.74967972 54.70959338 -7.35073161 54.37506809 -5.0859375 51.953125 C3.37250077 38.589565 5.19381376 22.81381316 2.3203125 7.33984375 C1.64330874 4.84137749 0.91384733 2.42060751 0 0 Z " fill="#553CE6" transform="translate(151,69)"/>
<path d="M0 0 C5.75 1.875 5.75 1.875 8 3 C10.204364 3.22950319 12.41392173 3.41075933 14.625 3.5625 C15.81351563 3.64628906 17.00203125 3.73007813 18.2265625 3.81640625 C19.59941406 3.90728516 19.59941406 3.90728516 21 4 C19 7 19 7 16.9375 7.875 C14.70909738 8.86943709 14.70909738 8.86943709 14.25 11.625 C14.1675 12.40875 14.085 13.1925 14 14 C7.42910677 10.938397 2.75648895 6.81014916 0 0 Z " fill="#575CE8" transform="translate(50,123)"/>
<path d="M0 0 C1.2509564 3.75286921 1 7.05979136 1 11 C-2.63 11 -6.26 11 -10 11 C-9.34 10.67 -8.68 10.34 -8 10 C-7.34786708 7.97536745 -7.34786708 7.97536745 -7 6 C-6.34 6 -5.68 6 -5 6 C-4.67 5.01 -4.34 4.02 -4 3 C-1.9375 1.3125 -1.9375 1.3125 0 0 Z " fill="#302AC3" transform="translate(107,63)"/>
<path d="M0 0 C-2.40481458 4.0080243 -4.65820712 4.61062628 -9 6 C-12.58567193 8.4901208 -12.58567193 8.4901208 -15 12 C-15.66 12 -16.32 12 -17 12 C-17.33 13.32 -17.66 14.64 -18 16 C-18.66 16 -19.32 16 -20 16 C-17.63209248 9.0885948 -12.35069177 4.2140941 -6.1875 0.4375 C-3 -1 -3 -1 0 0 Z " fill="#453CD6" transform="translate(117,57)"/>
<path d="M0 0 C-1.95788896 1.14659247 -3.91632483 2.2922511 -5.875 3.4375 C-6.96554688 4.07558594 -8.05609375 4.71367188 -9.1796875 5.37109375 C-10.76453829 6.28644386 -12.36302282 7.18151141 -14 8 C-14.66 6.68 -15.32 5.36 -16 4 C-15.34 3.67 -14.68 3.34 -14 3 C-13.34 3.33 -12.68 3.66 -12 4 C-11.67 3.01 -11.34 2.02 -11 1 C-6.90275533 -0.54613006 -4.18142349 -1.29227216 0 0 Z " fill="#3032D9" transform="translate(80,57)"/>
<path d="M0 0 C0.33 0 0.66 0 1 0 C1 2.97 1 5.94 1 9 C0.01 9.33 -0.98 9.66 -2 10 C-2 13.63 -2 17.26 -2 21 C-2.66 20.67 -3.32 20.34 -4 20 C-4.51778074 12.30520289 -3.7505733 6.78117047 0 0 Z " fill="#979FF8" transform="translate(52,81)"/>
<path d="M0 0 C3.67157953 3.3738839 6.12343314 6.35796619 8 11 C8 12.32 8 13.64 8 15 C7.01 15.33 6.02 15.66 5 16 C4.89042969 15.30132812 4.78085938 14.60265625 4.66796875 13.8828125 C4.50941406 12.97273438 4.35085937 12.06265625 4.1875 11.125 C4.03667969 10.22007813 3.88585937 9.31515625 3.73046875 8.3828125 C3.16948699 5.65587522 3.16948699 5.65587522 0 4 C0 2.68 0 1.36 0 0 Z " fill="#4C39DE" transform="translate(128,87)"/>
<path d="M0 0 C0.33 0.99 0.66 1.98 1 3 C-0.66666667 4.66666667 -2.33333333 6.33333333 -4 8 C-4.680625 8.78375 -5.36125 9.5675 -6.0625 10.375 C-6.701875 10.91125 -7.34125 11.4475 -8 12 C-10.12109375 11.6015625 -10.12109375 11.6015625 -12 11 C-11.46890625 10.62488281 -10.9378125 10.24976562 -10.390625 9.86328125 C-6.31226272 6.90870127 -2.93808 4.16228001 0 0 Z " fill="#8887E9" transform="translate(89,90)"/>
<path d="M0 0 C1.32 0.33 2.64 0.66 4 1 C1.03 3.64 -1.94 6.28 -5 9 C-5.66 8.34 -6.32 7.68 -7 7 C-5.37660195 5.29115995 -3.70680947 3.62553283 -2 2 C-1.34 2 -0.68 2 0 2 C0 1.34 0 0.68 0 0 Z " fill="#A09CFE" transform="translate(106,58)"/>
<path d="M0 0 C0.66 0 1.32 0 2 0 C1.55037804 1.96035175 1.09001752 3.91824309 0.625 5.875 C0.36976562 6.96554688 0.11453125 8.05609375 -0.1484375 9.1796875 C-1 12 -1 12 -3 14 C-2.58846263 9.02906176 -2.20399168 4.55491614 0 0 Z " fill="#9F9EFE" transform="translate(93,76)"/>
<path d="M0 0 C0.33 0.66 0.66 1.32 1 2 C0.00390625 3.9453125 0.00390625 3.9453125 -1.4375 6.125 C-1.91058594 6.84945312 -2.38367187 7.57390625 -2.87109375 8.3203125 C-3.24363281 8.87460938 -3.61617187 9.42890625 -4 10 C-4.99 9.67 -5.98 9.34 -7 9 C-4.69 6.03 -2.38 3.06 0 0 Z " fill="#9198FC" transform="translate(60,70)"/>
<path d="M0 0 C1.98 0.99 1.98 0.99 4 2 C4 2.66 4 3.32 4 4 C4.66 4 5.32 4 6 4 C6.33 5.65 6.66 7.3 7 9 C4.03595495 6.19195732 1.55500981 3.81684226 0 0 Z " fill="#4A54EC" transform="translate(50,123)"/>
<path d="M0 0 C0.66 0.33 1.32 0.66 2 1 C0.875 3.4375 0.875 3.4375 -1 6 C-4.1875 6.8125 -4.1875 6.8125 -7 7 C-4.66666667 4.66666667 -2.33333333 2.33333333 0 0 Z " fill="#9599FB" transform="translate(68,63)"/>
<path d="M0 0 C0.99 0.33 1.98 0.66 3 1 C1.6875 3 1.6875 3 0 5 C-0.99 5 -1.98 5 -3 5 C-2.625 3.0625 -2.625 3.0625 -2 1 C-1.34 0.67 -0.68 0.34 0 0 Z " fill="#4035D0" transform="translate(114,56)"/>
</svg>
