<?xml version="1.0" encoding="UTF-8"?>
<svg version="1.1" xmlns="http://www.w3.org/2000/svg" width="600" height="688">
<path d="M0 0 C1.00160156 0.5468042 2.00320313 1.0936084 3.03515625 1.65698242 C4.16598633 2.26880371 5.29681641 2.880625 6.46191406 3.51098633 C7.67392416 4.1779668 8.8858359 4.84512602 10.09765625 5.51245117 C11.35863007 6.1986066 12.62002871 6.88398188 13.88183594 7.56860352 C17.04180089 9.28556119 20.19638583 11.01213732 23.34936523 12.74188232 C25.89273222 14.13565525 28.44045057 15.52138982 30.98828125 16.90698242 C34.55309383 18.84679186 38.11542071 20.79104555 41.67578125 22.73901367 C47.47410986 25.90924666 53.28535702 29.05542466 59.09765625 32.19995117 C67.67754769 36.84268395 76.24665963 41.50466628 84.80859375 46.18041992 C91.56395544 49.86780216 98.32892317 53.53717916 105.09765625 57.19995117 C112.77194641 61.35274829 120.439354 65.51774307 128.09765625 69.69995117 C139.74884543 76.06190692 151.42235176 82.38238917 163.09765625 88.69995117 C175.67870178 95.50761389 188.25437775 102.32452491 200.80908203 109.18066406 C207.56426079 112.86800192 214.32908314 116.53726572 221.09765625 120.19995117 C229.67173965 124.8396544 238.23590974 129.49703167 246.79101562 134.17163086 C251.62670521 136.8122864 256.46767087 139.4426914 261.31640625 142.05932617 C262.36441406 142.62522461 263.41242187 143.19112305 264.4921875 143.77416992 C266.47837046 144.84595922 268.46528044 145.91640303 270.453125 146.98510742 C275.83071796 149.8876576 281.16165321 152.86109363 286.46289062 155.90014648 C287.10425964 156.26725739 287.74562866 156.63436829 288.40643311 157.01260376 C289.97044545 157.90791248 291.53408939 158.80386469 293.09765625 159.69995117 C293.2073246 236.73329623 293.19564733 313.76440149 292.69193649 390.79646683 C292.66552236 394.84643125 292.64021921 398.89640165 292.61532462 402.94637567 C292.59110481 406.87717661 292.5662994 410.80797373 292.54125977 414.73876953 C292.53641217 415.50291487 292.53156457 416.26706021 292.52657008 417.05436146 C292.47430196 425.18823475 292.4132025 433.32187918 292.3260498 441.45545959 C292.31862428 442.15340053 292.31119876 442.85134147 292.30354822 443.57043213 C292.27406193 446.33197713 292.24455709 449.09352125 292.21383595 451.85505283 C292.12181715 460.24543437 292.0962618 468.63257492 292.15460873 477.02339172 C292.18131443 481.63262779 292.17271882 486.24138088 292.15722466 490.85064697 C292.15914708 492.94452325 292.17759996 495.03846374 292.2143116 497.13201904 C292.47865922 512.55329875 292.47865922 512.55329875 289.11976624 517.77441406 C285.04684233 521.60203496 280.67281544 524.11733572 275.21875 525.44995117 C267.58311893 527.68781402 261.07442279 531.21980405 254.15872192 535.06420898 C251.41178554 536.57789755 248.63805685 538.03810875 245.8624115 539.49829102 C238.69798357 543.26839576 231.62216949 547.17432564 224.59765625 551.19995117 C214.84629274 556.78828685 204.94504493 562.06107173 195.00537109 567.3034668 C186.46209405 571.81236296 177.98012 576.39610798 169.59765625 581.19995117 C159.84629274 586.78828685 149.94504493 592.06107173 140.00537109 597.3034668 C131.46209405 601.81236296 122.98012 606.39610798 114.59765625 611.19995117 C105.53062658 616.3961071 96.33983383 621.32536388 87.09765625 626.19995117 C76.89018665 631.58385712 66.77349075 637.08154163 56.7578125 642.81713867 C48.32226612 647.62551942 39.75901437 652.17732104 31.17651367 656.71588135 C21.37821829 661.89980492 11.69092572 667.23902678 2.1015625 672.8034668 C1.23144531 673.30426758 0.36132812 673.80506836 -0.53515625 674.32104492 C-1.28684082 674.75860107 -2.03852539 675.19615723 -2.81298828 675.64697266 C-4.96351464 676.73077964 -6.50024258 677.47265987 -8.90234375 677.69995117 C-11.37817383 676.73461914 -11.37817383 676.73461914 -14.171875 675.19213867 C-15.73349365 674.34075317 -15.73349365 674.34075317 -17.32666016 673.47216797 C-18.44476074 672.84608643 -19.56286133 672.22000488 -20.71484375 671.57495117 C-21.89318686 670.92660635 -23.07206875 670.27923987 -24.25146484 669.6328125 C-32.47885412 665.10896522 -40.63868929 660.46409927 -48.79223633 655.80883789 C-57.76057519 650.71657432 -66.87195486 645.90807954 -75.99298096 641.09725952 C-85.45561053 636.10317861 -94.81739231 630.97367153 -104.1015625 625.65307617 C-112.27790763 620.99405864 -120.57956568 616.58956108 -128.90234375 612.19995117 C-139.06394256 606.84050816 -149.13282056 601.36598762 -159.1015625 595.65307617 C-167.27790763 590.99405864 -175.57956568 586.58956108 -183.90234375 582.19995117 C-194.06394256 576.84050816 -204.13282056 571.36598762 -214.1015625 565.65307617 C-222.27791264 560.99405578 -230.57961179 556.58965665 -238.90234375 552.19995117 C-249.13937428 546.80018237 -259.28990492 541.29163287 -269.33447266 535.53881836 C-278.46791803 530.32768127 -287.74087146 525.38509241 -297.03027344 520.45922852 C-298.7419873 519.54971436 -298.7419873 519.54971436 -300.48828125 518.62182617 C-301.50970215 518.08138672 -302.53112305 517.54094727 -303.58349609 516.98413086 C-305.90234375 515.69995117 -305.90234375 515.69995117 -306.90234375 514.69995117 C-306.99997536 512.81295849 -307.02605714 510.92225335 -307.02539158 509.03273678 C-307.02738263 507.7941403 -307.02937368 506.55554382 -307.03142506 505.27941412 C-307.02857147 503.88711716 -307.02562586 502.49482039 -307.02259827 501.1025238 C-307.02303384 499.63735643 -307.02390849 498.17218913 -307.02518743 496.70702225 C-307.02743514 492.66171304 -307.02340737 488.61643006 -307.01840937 484.5711242 C-307.01410898 480.21595452 -307.015551 475.86078644 -307.01631165 471.50561523 C-307.01683714 463.9536294 -307.01368766 456.40165217 -307.00807381 448.8496685 C-306.99996228 437.9306371 -306.99734394 427.01160988 -306.99608582 416.0925758 C-306.99389475 398.37909765 -306.98723318 380.66562409 -306.9777832 362.95214844 C-306.9686105 345.74056013 -306.96152897 328.52897307 -306.95727539 311.31738281 C-306.95701267 310.25726211 -306.95674994 309.1971414 -306.95647926 308.10489582 C-306.95517426 302.78682117 -306.95391055 297.46874651 -306.95266736 292.15067184 C-306.94229304 248.00042843 -306.92467324 203.85019004 -306.90234375 159.69995117 C-306.23291748 159.33756348 -305.56349121 158.97517578 -304.8737793 158.60180664 C-301.77903793 156.92636575 -298.68444022 155.25065968 -295.58984375 153.57495117 C-294.01106445 152.72030273 -294.01106445 152.72030273 -292.40039062 151.84838867 C-285.56094866 148.14456779 -278.72839441 144.42839035 -271.90234375 140.69995117 C-263.23281182 135.9662418 -254.55060023 131.25639845 -245.86328125 126.55541992 C-239.20261799 122.94971203 -232.54969642 119.33013368 -225.90234375 115.69995117 C-217.23315057 110.96562233 -208.55059807 106.25639727 -199.86328125 101.55541992 C-193.20261799 97.94971203 -186.54969642 94.33013368 -179.90234375 90.69995117 C-171.23315057 85.96562233 -162.55059807 81.25639727 -153.86328125 76.55541992 C-147.20261799 72.94971203 -140.54969642 69.33013368 -133.90234375 65.69995117 C-125.23315057 60.96562233 -116.55059807 56.25639727 -107.86328125 51.55541992 C-101.20261799 47.94971203 -94.54969642 44.33013368 -87.90234375 40.69995117 C-80.24406819 36.51769406 -72.57661255 32.35278745 -64.90234375 28.19995117 C-58.09907819 24.51808734 -51.29821423 20.83201204 -44.5078125 17.12646484 C-42.70163982 16.14149997 -40.89436342 15.15855609 -39.0859375 14.17773438 C-34.3103379 11.58329805 -29.56519479 8.94557784 -24.84765625 6.24682617 C-23.85266113 5.68487549 -22.85766602 5.1229248 -21.83251953 4.54394531 C-19.92477666 3.46545545 -18.02423284 2.3740976 -16.13232422 1.26806641 C-15.27268066 0.78539307 -14.41303711 0.30271973 -13.52734375 -0.19458008 C-12.77710938 -0.62617432 -12.026875 -1.05776855 -11.25390625 -1.50244141 C-7.09606104 -2.91270722 -3.89894639 -1.74645773 0 0 Z " fill="#00D2B8" transform="translate(306.90234375,2.300048828125)"/>
<path d="M0 0 C1.00160156 0.5468042 2.00320313 1.0936084 3.03515625 1.65698242 C4.16598633 2.26880371 5.29681641 2.880625 6.46191406 3.51098633 C7.67392416 4.1779668 8.8858359 4.84512602 10.09765625 5.51245117 C11.35863007 6.1986066 12.62002871 6.88398188 13.88183594 7.56860352 C17.04180089 9.28556119 20.19638583 11.01213732 23.34936523 12.74188232 C25.89273222 14.13565525 28.44045057 15.52138982 30.98828125 16.90698242 C34.55309383 18.84679186 38.11542071 20.79104555 41.67578125 22.73901367 C47.47410986 25.90924666 53.28535702 29.05542466 59.09765625 32.19995117 C67.67754769 36.84268395 76.24665963 41.50466628 84.80859375 46.18041992 C91.56395544 49.86780216 98.32892317 53.53717916 105.09765625 57.19995117 C112.77194641 61.35274829 120.439354 65.51774307 128.09765625 69.69995117 C139.74884543 76.06190692 151.42235176 82.38238917 163.09765625 88.69995117 C175.67870178 95.50761389 188.25437775 102.32452491 200.80908203 109.18066406 C207.56426079 112.86800192 214.32908314 116.53726572 221.09765625 120.19995117 C229.67173965 124.8396544 238.23590974 129.49703167 246.79101562 134.17163086 C251.62670521 136.8122864 256.46767087 139.4426914 261.31640625 142.05932617 C262.36441406 142.62522461 263.41242187 143.19112305 264.4921875 143.77416992 C266.47837046 144.84595922 268.46528044 145.91640303 270.453125 146.98510742 C275.83071796 149.8876576 281.16165321 152.86109363 286.46289062 155.90014648 C287.10425964 156.26725739 287.74562866 156.63436829 288.40643311 157.01260376 C289.97044545 157.90791248 291.53408939 158.80386469 293.09765625 159.69995117 C293.2073246 236.73329623 293.19564733 313.76440149 292.69193649 390.79646683 C292.66552236 394.84643125 292.64021921 398.89640165 292.61532462 402.94637567 C292.59110481 406.87717661 292.5662994 410.80797373 292.54125977 414.73876953 C292.53641217 415.50291487 292.53156457 416.26706021 292.52657008 417.05436146 C292.47430196 425.18823475 292.4132025 433.32187918 292.3260498 441.45545959 C292.31862428 442.15340053 292.31119876 442.85134147 292.30354822 443.57043213 C292.27406193 446.33197713 292.24455709 449.09352125 292.21383595 451.85505283 C292.12181715 460.24543437 292.0962618 468.63257492 292.15460873 477.02339172 C292.18131443 481.63262779 292.17271882 486.24138088 292.15722466 490.85064697 C292.15914708 492.94452325 292.17759996 495.03846374 292.2143116 497.13201904 C292.47865922 512.55329875 292.47865922 512.55329875 289.11976624 517.77441406 C285.04684233 521.60203496 280.67281544 524.11733572 275.21875 525.44995117 C267.58311893 527.68781402 261.07442279 531.21980405 254.15872192 535.06420898 C251.41178554 536.57789755 248.63805685 538.03810875 245.8624115 539.49829102 C238.69798357 543.26839576 231.62216949 547.17432564 224.59765625 551.19995117 C214.84629274 556.78828685 204.94504493 562.06107173 195.00537109 567.3034668 C186.46209405 571.81236296 177.98012 576.39610798 169.59765625 581.19995117 C159.84629274 586.78828685 149.94504493 592.06107173 140.00537109 597.3034668 C131.46209405 601.81236296 122.98012 606.39610798 114.59765625 611.19995117 C105.53062658 616.3961071 96.33983383 621.32536388 87.09765625 626.19995117 C76.89018665 631.58385712 66.77349075 637.08154163 56.7578125 642.81713867 C48.32226612 647.62551942 39.75901437 652.17732104 31.17651367 656.71588135 C21.37821829 661.89980492 11.69092572 667.23902678 2.1015625 672.8034668 C1.23144531 673.30426758 0.36132812 673.80506836 -0.53515625 674.32104492 C-1.28684082 674.75860107 -2.03852539 675.19615723 -2.81298828 675.64697266 C-4.96351464 676.73077964 -6.50024258 677.47265987 -8.90234375 677.69995117 C-11.37817383 676.73461914 -11.37817383 676.73461914 -14.171875 675.19213867 C-15.73349365 674.34075317 -15.73349365 674.34075317 -17.32666016 673.47216797 C-18.44476074 672.84608643 -19.56286133 672.22000488 -20.71484375 671.57495117 C-21.89318686 670.92660635 -23.07206875 670.27923987 -24.25146484 669.6328125 C-32.47885412 665.10896522 -40.63868929 660.46409927 -48.79223633 655.80883789 C-57.76057519 650.71657432 -66.87195486 645.90807954 -75.99298096 641.09725952 C-85.45561053 636.10317861 -94.81739231 630.97367153 -104.1015625 625.65307617 C-112.27790763 620.99405864 -120.57956568 616.58956108 -128.90234375 612.19995117 C-139.06394256 606.84050816 -149.13282056 601.36598762 -159.1015625 595.65307617 C-167.27790763 590.99405864 -175.57956568 586.58956108 -183.90234375 582.19995117 C-194.06394256 576.84050816 -204.13282056 571.36598762 -214.1015625 565.65307617 C-222.27791264 560.99405578 -230.57961179 556.58965665 -238.90234375 552.19995117 C-249.13937428 546.80018237 -259.28990492 541.29163287 -269.33447266 535.53881836 C-278.46791803 530.32768127 -287.74087146 525.38509241 -297.03027344 520.45922852 C-298.7419873 519.54971436 -298.7419873 519.54971436 -300.48828125 518.62182617 C-301.50970215 518.08138672 -302.53112305 517.54094727 -303.58349609 516.98413086 C-305.90234375 515.69995117 -305.90234375 515.69995117 -306.90234375 514.69995117 C-306.99997536 512.81295849 -307.02605714 510.92225335 -307.02539158 509.03273678 C-307.02738263 507.7941403 -307.02937368 506.55554382 -307.03142506 505.27941412 C-307.02857147 503.88711716 -307.02562586 502.49482039 -307.02259827 501.1025238 C-307.02303384 499.63735643 -307.02390849 498.17218913 -307.02518743 496.70702225 C-307.02743514 492.66171304 -307.02340737 488.61643006 -307.01840937 484.5711242 C-307.01410898 480.21595452 -307.015551 475.86078644 -307.01631165 471.50561523 C-307.01683714 463.9536294 -307.01368766 456.40165217 -307.00807381 448.8496685 C-306.99996228 437.9306371 -306.99734394 427.01160988 -306.99608582 416.0925758 C-306.99389475 398.37909765 -306.98723318 380.66562409 -306.9777832 362.95214844 C-306.9686105 345.74056013 -306.96152897 328.52897307 -306.95727539 311.31738281 C-306.95701267 310.25726211 -306.95674994 309.1971414 -306.95647926 308.10489582 C-306.95517426 302.78682117 -306.95391055 297.46874651 -306.95266736 292.15067184 C-306.94229304 248.00042843 -306.92467324 203.85019004 -306.90234375 159.69995117 C-306.23291748 159.33756348 -305.56349121 158.97517578 -304.8737793 158.60180664 C-301.77903793 156.92636575 -298.68444022 155.25065968 -295.58984375 153.57495117 C-294.01106445 152.72030273 -294.01106445 152.72030273 -292.40039062 151.84838867 C-285.56094866 148.14456779 -278.72839441 144.42839035 -271.90234375 140.69995117 C-263.23281182 135.9662418 -254.55060023 131.25639845 -245.86328125 126.55541992 C-239.20261799 122.94971203 -232.54969642 119.33013368 -225.90234375 115.69995117 C-217.23315057 110.96562233 -208.55059807 106.25639727 -199.86328125 101.55541992 C-193.20261799 97.94971203 -186.54969642 94.33013368 -179.90234375 90.69995117 C-171.23315057 85.96562233 -162.55059807 81.25639727 -153.86328125 76.55541992 C-147.20261799 72.94971203 -140.54969642 69.33013368 -133.90234375 65.69995117 C-125.23315057 60.96562233 -116.55059807 56.25639727 -107.86328125 51.55541992 C-101.20261799 47.94971203 -94.54969642 44.33013368 -87.90234375 40.69995117 C-80.24406819 36.51769406 -72.57661255 32.35278745 -64.90234375 28.19995117 C-58.09907819 24.51808734 -51.29821423 20.83201204 -44.5078125 17.12646484 C-42.70163982 16.14149997 -40.89436342 15.15855609 -39.0859375 14.17773438 C-34.3103379 11.58329805 -29.56519479 8.94557784 -24.84765625 6.24682617 C-23.85266113 5.68487549 -22.85766602 5.1229248 -21.83251953 4.54394531 C-19.92477666 3.46545545 -18.02423284 2.3740976 -16.13232422 1.26806641 C-15.27268066 0.78539307 -14.41303711 0.30271973 -13.52734375 -0.19458008 C-12.77710938 -0.62617432 -12.026875 -1.05776855 -11.25390625 -1.50244141 C-7.09606104 -2.91270722 -3.89894639 -1.74645773 0 0 Z M-15.38671875 57.96166992 C-16.02986023 58.30345779 -16.67300171 58.64524567 -17.33563232 58.99739075 C-19.44472699 60.12094915 -21.54861168 61.25388796 -23.65234375 62.38745117 C-25.12032118 63.17283462 -26.58842114 63.95798907 -28.05664062 64.74291992 C-37.14479096 69.61441811 -46.14951037 74.61743346 -55.09667969 79.74365234 C-63.95906673 84.79483862 -72.9730189 89.54527809 -81.99462891 94.3034668 C-90.53790595 98.81236296 -99.01988 103.39610798 -107.40234375 108.19995117 C-117.15370726 113.78828685 -127.05495507 119.06107173 -136.99462891 124.3034668 C-145.53790595 128.81236296 -154.01988 133.39610798 -162.40234375 138.19995117 C-171.46937622 143.39610871 -180.66019193 148.32531088 -189.90234375 153.19995117 C-199.2272936 158.11862101 -208.49181364 163.10319241 -217.65234375 168.32495117 C-230.61360818 175.66966768 -243.77038555 182.66497356 -256.90234375 189.69995117 C-256.90234375 287.04995117 -256.90234375 384.39995117 -256.90234375 484.69995117 C-244.51544798 491.70124008 -232.3113036 498.58359195 -219.7265625 505.13354492 C-214.4876324 507.89104617 -209.35373936 510.82389162 -204.21484375 513.76245117 C-194.87378124 519.09837318 -185.41656555 524.18260995 -175.90234375 529.19995117 C-165.74066743 534.55924328 -155.67186104 540.03391811 -145.703125 545.74682617 C-137.52677737 550.40584513 -129.22509877 554.81029349 -120.90234375 559.19995117 C-110.69487415 564.58385712 -100.57817825 570.08154163 -90.5625 575.81713867 C-82.1217411 580.62849063 -73.55187542 585.17988213 -64.96609497 589.72494507 C-56.47763167 594.22146304 -48.05942098 598.81455024 -39.71484375 603.57495117 C-36.11279391 605.62037273 -32.50863513 607.66201742 -28.90234375 609.69995117 C-27.55317871 610.4637207 -27.55317871 610.4637207 -26.17675781 611.24291992 C-23.57417143 612.70540617 -20.95963449 614.1435638 -18.33984375 615.57495117 C-17.57196533 616.01049316 -16.80408691 616.44603516 -16.01293945 616.89477539 C-15.29452881 617.28165527 -14.57611816 617.66853516 -13.8359375 618.06713867 C-13.21775146 618.4085791 -12.59956543 618.75001953 -11.96264648 619.10180664 C-8.17342455 620.20188885 -4.91246178 619.14123541 -1.38305664 617.59936523 C-0.55539795 617.14271484 0.27226074 616.68606445 1.125 616.21557617 C2.06923828 615.69962891 3.01347656 615.18368164 3.98632812 614.65209961 C4.99244141 614.09039063 5.99855469 613.52868164 7.03515625 612.94995117 C8.09927734 612.36503906 9.16339844 611.78012695 10.25976562 611.17749023 C18.17704309 606.8115167 26.03321281 602.33885194 33.88647461 597.85913086 C42.8903251 592.75394081 52.03375169 587.92580808 61.18774414 583.09753418 C69.73176075 578.5882755 78.2144773 574.00420423 86.59765625 569.19995117 C96.34901976 563.6116155 106.25026757 558.33883062 116.18994141 553.09643555 C124.73321845 548.58753939 133.2151925 544.00379437 141.59765625 539.19995117 C151.34901976 533.6116155 161.25026757 528.33883062 171.18994141 523.09643555 C180.63571402 518.11122816 189.98285225 512.9941121 199.24853516 507.67944336 C209.30826486 501.94386914 219.55603081 496.56248632 229.80273438 491.1706543 C230.47869659 490.81428894 231.15465881 490.45792358 231.85110474 490.09075928 C233.13068361 489.41652815 234.41114616 488.74397073 235.69259644 488.07330322 C238.58090859 486.65458847 238.58090859 486.65458847 241.09765625 484.69995117 C241.21675165 482.91944613 241.26515338 481.1342021 241.28710938 479.34985352 C241.31223854 477.58463348 241.31223854 477.58463348 241.33787537 475.78375244 C241.35141556 474.4644574 241.36495575 473.14516235 241.37890625 471.78588867 C241.39681607 470.36732526 241.41510264 468.94876656 241.43373108 467.5302124 C241.48428716 463.56018142 241.52796413 459.59009968 241.57017899 455.61997223 C241.59780003 453.06163401 241.6271017 450.50332045 241.6569519 447.94500732 C241.82090287 433.86348594 241.96248201 419.78177536 242.09765625 405.69995117 C242.1090287 404.51915985 242.12040115 403.33836853 242.13211823 402.12179565 C242.81190996 331.31435873 243.28642935 260.51126763 243.09765625 189.69995117 C242.31425873 189.28057785 241.53086121 188.86120453 240.72372437 188.42912292 C237.75389505 186.83914542 234.78418314 185.24894902 231.81454468 183.65861511 C230.54111181 182.97670674 229.26763522 182.29488 227.99411011 181.61314392 C211.0820549 172.55969999 194.22132544 163.41266953 177.38525391 154.21875 C170.63044101 150.53150086 163.86590942 146.86246349 157.09765625 143.19995117 C149.42336609 139.04715405 141.7559585 134.88215927 134.09765625 130.69995117 C122.44646707 124.33799542 110.77296074 118.01751317 99.09765625 111.69995117 C86.51661072 104.89228845 73.94093475 98.07537744 61.38623047 91.21923828 C53.62808791 86.98442914 45.85639858 82.77488973 38.08276367 78.56860352 C32.13130771 75.34697358 26.18523876 72.11573304 20.24536133 68.87280273 C18.38235976 67.85571585 16.51892846 66.83941564 14.6550293 65.82397461 C10.74369189 63.69307194 6.83529931 61.55790134 2.94140625 59.39526367 C2.33385498 59.06059082 1.72630371 58.72591797 1.1003418 58.38110352 C-0.4483645 57.52789453 -1.99387895 56.66889848 -3.5390625 55.80932617 C-8.24318244 53.60111119 -11.1989554 55.6975806 -15.38671875 57.96166992 Z " fill="#000000" transform="translate(306.90234375,2.300048828125)"/>
<path d="M0 0 C3.89713423 1.52656807 7.54500841 3.27046331 11.2421875 5.23828125 C11.83801636 5.55499786 12.43384521 5.87171448 13.04772949 6.19802856 C14.99181689 7.23310013 16.93353958 8.27251041 18.875 9.3125 C19.88207001 9.85029587 19.88207001 9.85029587 20.90948486 10.3989563 C30.38447397 15.46076162 39.76983864 20.65676591 49.09326172 25.9934082 C57.99129101 31.05730842 67.03715897 35.82759963 76.09173584 40.60324097 C85.55399478 45.59714167 94.9154064 50.72648471 104.19921875 56.046875 C112.37556638 60.70589396 120.67724498 65.11034232 129 69.5 C139.2074696 74.88390595 149.3241655 80.38159046 159.33984375 86.1171875 C167.78189368 90.92927536 176.35296137 95.48165603 184.9402771 100.02700806 C194.28133662 104.97447995 203.51577038 110.07507156 212.69091797 115.32568359 C220.54248682 119.79607336 228.52053662 123.99938554 236.55444336 128.13183594 C237.45686768 128.5962207 238.35929199 129.06060547 239.2890625 129.5390625 C240.08006348 129.94334473 240.87106445 130.34762695 241.68603516 130.76416016 C242.44964355 131.1719873 243.21325195 131.57981445 244 132 C244.86032428 132.28284505 245.72064856 132.5656901 246.60704327 132.85710621 C249.51070391 135.45733558 249.39981955 136.1829722 249.61523914 139.96065044 C249.63637588 142.14771662 249.62933085 144.33515218 249.60127258 146.5221405 C249.60768077 148.32683201 249.60768077 148.32683201 249.61421841 150.16798192 C249.62104572 153.51380941 249.60536533 156.85818369 249.58032811 160.20383584 C249.55877941 163.80913389 249.56603955 167.4143853 249.56983948 171.01972961 C249.57246403 177.26819229 249.55674775 183.51639437 249.52865028 189.76479149 C249.48805243 198.7989309 249.4749969 207.83294402 249.46871033 216.86716477 C249.45776128 231.52373797 249.4244706 246.1801722 249.37719727 260.83666992 C249.33131742 275.07592065 249.29591783 289.31513366 249.2746582 303.55444336 C249.27334459 304.43183189 249.27203097 305.30922042 249.27067754 306.21319648 C249.26415246 310.61470129 249.2578339 315.01620636 249.25161803 319.41771162 C249.19976603 355.94523921 249.1116842 392.4726088 249 429 C244.94261403 427.68381029 241.28912236 426.2309994 237.53515625 424.19921875 C236.50036133 423.64121582 235.46556641 423.08321289 234.39941406 422.50830078 C233.29823242 421.90743652 232.19705078 421.30657227 231.0625 420.6875 C229.90588867 420.06085449 228.74927734 419.43420898 227.55761719 418.78857422 C219.30324808 414.30672135 211.12644514 409.69341101 202.96899414 405.0378418 C194.41684152 400.18166771 185.74300049 395.57012832 177.05230713 390.96878052 C168.83928522 386.61762087 160.69149337 382.18187318 152.625 377.5625 C142.83101135 371.95589817 132.88866984 366.66070881 122.90826416 361.39675903 C113.44600522 356.40285833 104.0845936 351.27351529 94.80078125 345.953125 C86.62443362 341.29410604 78.32275502 336.88965768 70 332.5 C59.8088506 327.1247021 49.70609376 321.63935378 39.70849609 315.90917969 C30.11189501 310.43572842 20.35180513 305.27351699 10.58349609 300.11499023 C9.95344666 299.78158127 9.32339722 299.4481723 8.67425537 299.10466003 C6.95124298 298.1933467 5.2268828 297.28458295 3.50244141 296.37597656 C1 295 1 295 0 294 C-0.0969847 292.43094107 -0.1237165 290.85749849 -0.12304783 289.28544521 C-0.12503888 288.25933587 -0.12702993 287.23322652 -0.12908131 286.17602295 C-0.12616847 285.03499699 -0.12325563 283.89397103 -0.12025452 282.71836853 C-0.12110894 281.51694971 -0.12196337 280.31553089 -0.12284368 279.07770544 C-0.12421189 275.72788054 -0.12106434 272.37811335 -0.11606562 269.0282954 C-0.11176449 265.42159896 -0.1132073 261.81490445 -0.1139679 258.20820618 C-0.11449335 251.95435599 -0.11134435 245.7005162 -0.10573006 239.44666862 C-0.0976179 230.4045516 -0.09500013 221.36243963 -0.09374207 212.32031936 C-0.0915511 197.65161305 -0.0848898 182.98291228 -0.07543945 168.31420898 C-0.06626649 154.06127958 -0.05918509 139.80835168 -0.05493164 125.55541992 C-0.05466892 124.67750595 -0.05440619 123.79959197 -0.05413551 122.89507454 C-0.05283051 118.49102823 -0.05156679 114.08698192 -0.05032361 109.6829356 C-0.0399496 73.12195315 -0.02233007 36.560977 0 0 Z " fill="#81ECDE" transform="translate(50,193)"/>
<path d="M0 0 C2.27975344 1.06561014 4.47109027 2.16376609 6.6796875 3.359375 C7.32040695 3.69997452 7.9611264 4.04057404 8.6212616 4.39149475 C10.70948483 5.50432636 12.79231659 6.62683954 14.875 7.75 C16.32725169 8.52720017 17.77964553 9.30413476 19.23217773 10.08081055 C28.50693182 15.05360054 37.69446235 20.16687435 46.82763672 25.39550781 C54.2447875 29.62443422 61.78745111 33.57314729 69.37719727 37.48168945 C76.1766479 41.0013167 82.85431877 44.69883965 89.5 48.5 C98.05044257 53.38814712 106.69770052 58.03257694 115.44750977 62.55297852 C124.76916845 67.37501781 133.97044247 72.40517815 143.17138672 77.45263672 C148.10527384 80.15166801 153.05318218 82.82476537 158 85.5 C166.57997612 90.14257565 175.149004 94.80471544 183.7109375 99.48046875 C190.46629939 103.1678511 197.23129345 106.83717867 204 110.5 C211.98544475 114.82185526 219.96561457 119.15317888 227.9375 123.5 C228.81857422 123.98017578 229.69964844 124.46035156 230.60742188 124.95507812 C231.44724609 125.41333984 232.28707031 125.87160156 233.15234375 126.34375 C233.87413818 126.73755859 234.59593262 127.13136719 235.33959961 127.53710938 C239.23361554 129.67833572 243.11533611 131.8418534 247 134 C247 163.37 247 192.74 247 223 C246.67 223 246.34 223 246 223 C246 194.29 246 165.58 246 136 C232.84282057 142.86461535 219.73072671 149.72395715 206.73046875 156.8671875 C200.50494675 160.27828409 194.25326408 163.64010581 188 167 C179.98588644 171.3078286 171.98313276 175.63502197 164 180 C154.95890317 184.94282916 145.891835 189.836177 136.81689453 194.71655273 C126.52237164 200.25360827 116.24363287 205.81951723 105.96777344 211.39111328 C99.97786417 214.63835761 93.98633159 217.88260592 87.99511719 221.12744141 C83.01965937 223.8222788 78.04456911 226.51778968 73.0703125 229.21484375 C62.68061279 234.84708271 52.28340511 240.46489619 41.875 246.0625 C33.55044017 250.54050476 25.23589156 255.03616905 16.9375 259.5625 C16.06399902 260.03888916 15.19049805 260.51527832 14.29052734 261.00610352 C13.46117676 261.45912842 12.63182617 261.91215332 11.77734375 262.37890625 C10.98054199 262.80961426 10.18374023 263.24032227 9.36279297 263.68408203 C7.75244833 264.5809365 6.16305882 265.5162298 4.59423828 266.48388672 C-1.13923896 269.95890266 -1.13923896 269.95890266 -4.9453125 270.140625 C-9.50734146 268.43715639 -13.64430261 266.1483605 -17.875 263.75 C-19.8525087 262.64910007 -21.83038618 261.54886238 -23.80859375 260.44921875 C-25.3397583 259.59336182 -25.3397583 259.59336182 -26.90185547 258.72021484 C-31.88738126 255.95204978 -36.91501358 253.26281008 -41.9375 250.5625 C-50.92799785 245.71172139 -59.82989843 240.71937838 -68.70678711 235.66430664 C-75.34412866 231.89864518 -82.05402164 228.30743011 -88.82666016 224.79248047 C-94.86064312 221.6431703 -100.77929425 218.3159719 -106.6875 214.9375 C-116.02856251 209.60157799 -125.4857782 204.51734123 -135 199.5 C-145.16167632 194.14070789 -155.23048271 188.66603306 -165.19921875 182.953125 C-173.3755739 178.29410176 -181.67731421 173.88980116 -190 169.5 C-200.32797583 164.05171147 -210.57201655 158.49542197 -220.71118164 152.70043945 C-231.37329195 146.61565846 -242.18505856 140.80751869 -253 135 C-250.18012952 132.7870808 -247.33035222 131.00379608 -244.16796875 129.3203125 C-243.21728516 128.81081055 -242.26660156 128.30130859 -241.28710938 127.77636719 C-239.75280273 126.95894043 -239.75280273 126.95894043 -238.1875 126.125 C-230.0650861 121.76621512 -222.00101414 117.32754817 -214 112.75 C-204.07858224 107.08781622 -194.01252448 101.72620655 -183.90991211 96.39758301 C-175.3658955 91.88832433 -166.88317895 87.30425306 -158.5 82.5 C-148.74863649 76.91166432 -138.84738868 71.63887945 -128.90771484 66.39648438 C-120.3644378 61.88758822 -111.88246375 57.30384319 -103.5 52.5 C-93.74863649 46.91166432 -83.84738868 41.63887945 -73.90771484 36.39648438 C-65.36435519 31.88754462 -56.88371861 27.30176382 -48.5 22.5 C-39.73721707 17.50487589 -30.92677782 12.60093221 -22.05297852 7.8059082 C-20.61093135 7.02402477 -19.17158461 6.23713844 -17.73510742 5.44506836 C-15.72381286 4.33750452 -13.70338776 3.2487526 -11.6796875 2.1640625 C-11.07861176 1.82835236 -10.47753601 1.49264221 -9.85824585 1.14675903 C-6.12252515 -0.82325485 -3.99530136 -1.45063774 0 0 Z " fill="#0083C0" transform="translate(303,58)"/>
</svg>
