<?xml version="1.0" encoding="UTF-8"?>
<svg version="1.1" xmlns="http://www.w3.org/2000/svg" width="200" height="200">
<path d="M0 0 C66 0 132 0 200 0 C200 66 200 132 200 200 C134 200 68 200 0 200 C0 134 0 68 0 0 Z " fill="#242341" transform="translate(0,0)"/>
<path d="M0 0 C3.63 0 7.26 0 11 0 C11 2.64 11 5.28 11 8 C18.26 8 25.52 8 33 8 C33 10.97 33 13.94 33 17 C22.11 17 11.22 17 0 17 C0 11.39 0 5.78 0 0 Z " fill="#623F37" transform="translate(19,104)"/>
<path d="M0 0 C2.34643555 0.19750977 2.34643555 0.19750977 5 1 C6.39379883 3.10131836 6.39379883 3.10131836 7.45703125 5.83984375 C8.04194336 7.3103418 8.04194336 7.3103418 8.63867188 8.81054688 C9.2197168 10.35838867 9.2197168 10.35838867 9.8125 11.9375 C10.21919922 12.96552734 10.62589844 13.99355469 11.04492188 15.05273438 C14 22.61674107 14 22.61674107 14 25 C12.68 25 11.36 25 10 25 C9.67 23.02 9.34 21.04 9 19 C2.565 19.495 2.565 19.495 -4 20 C-4.99 22.475 -4.99 22.475 -6 25 C-7.32 25 -8.64 25 -10 25 C-7.37589493 16.35588919 -3.68616238 8.23074615 0 0 Z " fill="#EFEFF4" transform="translate(166,87)"/>
<path d="M0 0 C7.26 0 14.52 0 22 0 C22 2.97 22 5.94 22 9 C14.74 9 7.48 9 0 9 C0 6.03 0 3.06 0 0 Z " fill="#E17F32" transform="translate(30,95)"/>
<path d="M0 0 C4.62 0 9.24 0 14 0 C14 1.32 14 2.64 14 4 C10.7 4 7.4 4 4 4 C4 6.31 4 8.62 4 11 C6.97 11 9.94 11 13 11 C13 11.99 13 12.98 13 14 C10.03 14 7.06 14 4 14 C4 16.64 4 19.28 4 22 C7.3 22 10.6 22 14 22 C14 22.99 14 23.98 14 25 C9.38 25 4.76 25 0 25 C0 16.75 0 8.5 0 0 Z " fill="#EDEDF4" transform="translate(68,87)"/>
<path d="M0 0 C6.6 0 13.2 0 20 0 C20 1.32 20 2.64 20 4 C17.36 4 14.72 4 12 4 C12 10.93 12 17.86 12 25 C10.68 25 9.36 25 8 25 C8 18.07 8 11.14 8 4 C5.69 4 3.38 4 1 4 C0.67 2.68 0.34 1.36 0 0 Z " fill="#D9D9E0" transform="translate(90,87)"/>
<path d="M0 0 C1.32 0 2.64 0 4 0 C5.703125 1.8984375 5.703125 1.8984375 7.25 4.375 C7.77078125 5.18710938 8.2915625 5.99921875 8.828125 6.8359375 C10 9 10 9 10 11 C10.66 11 11.32 11 12 11 C12.2475 10.29875 12.495 9.5975 12.75 8.875 C14.18872146 5.56594064 15.7597134 2.83330365 18 0 C19.32 0 20.64 0 22 0 C20.72792024 3.52740958 19.22420785 6.16969698 16.9375 9.125 C13.41349996 14.20950614 13.02270394 18.92669664 13 25 C11.68 25 10.36 25 9 25 C9.020625 24.34515625 9.04125 23.6903125 9.0625 23.015625 C8.88580108 15.19669771 6.32575573 10.66521292 1.71484375 4.43359375 C0 2 0 2 0 0 Z " fill="#F0F1F6" transform="translate(131,87)"/>
<path d="M0 0 C0.66 0 1.32 0 2 0 C2 0.66 2 1.32 2 2 C1.34 2 0.68 2 0 2 C0 2.66 0 3.32 0 4 C2.40059817 5.20029908 3.89360649 5.11459743 6.5703125 5.09765625 C7.91416016 5.09282227 7.91416016 5.09282227 9.28515625 5.08789062 C10.22230469 5.07951172 11.15945312 5.07113281 12.125 5.0625 C13.54232422 5.05573242 13.54232422 5.05573242 14.98828125 5.04882812 C17.3255477 5.03702375 19.66278169 5.01908799 22 5 C21.67 8.63 21.34 12.26 21 16 C20.67 16 20.34 16 20 16 C20 13.03 20 10.06 20 7 C12.74 7 5.48 7 -2 7 C-2 9.97 -2 12.94 -2 16 C-5.63 16 -9.26 16 -13 16 C-13 20.29 -13 24.58 -13 29 C-13.33 29 -13.66 29 -14 29 C-14 24.71 -14 20.42 -14 16 C-14.66 16 -15.32 16 -16 16 C-15.67 15.01 -15.34 14.02 -15 13 C-14.34 13.33 -13.68 13.66 -13 14 C-9.99525503 14.13559318 -7.00931153 14.04299016 -4 14 C-4 10.7 -4 7.4 -4 4 C-3.01 3.67 -2.02 3.34 -1 3 C-0.67 2.01 -0.34 1.02 0 0 Z " fill="#2B2136" transform="translate(32,88)"/>
<path d="M0 0 C3.63 0 7.26 0 11 0 C11 2.97 11 5.94 11 9 C7.37 9 3.74 9 0 9 C0 6.03 0 3.06 0 0 Z " fill="#E07F32" transform="translate(41,112)"/>
<path d="M0 0 C3.63 0 7.26 0 11 0 C11 2.97 11 5.94 11 9 C7.37 9 3.74 9 0 9 C0 6.03 0 3.06 0 0 Z " fill="#965933" transform="translate(30,112)"/>
<path d="M0 0 C3.63 0 7.26 0 11 0 C11 2.97 11 5.94 11 9 C7.37 9 3.74 9 0 9 C0 6.03 0 3.06 0 0 Z " fill="#A05B28" transform="translate(30,95)"/>
<path d="M0 0 C3.63 0 7.26 0 11 0 C11 2.64 11 5.28 11 8 C7.37 8 3.74 8 0 8 C0 5.36 0 2.72 0 0 Z " fill="#E28136" transform="translate(41,79)"/>
<path d="M0 0 C0.99 0 1.98 0 3 0 C3 8.25 3 16.5 3 25 C2.01 25 1.02 25 0 25 C0 16.75 0 8.5 0 0 Z " fill="#FAFBFC" transform="translate(119,87)"/>
<path d="M0 0 C4.62 0 9.24 0 14 0 C14 1.32 14 2.64 14 4 C10.7 4 7.4 4 4 4 C4 6.31 4 8.62 4 11 C3.01 10.67 2.02 10.34 1 10 C0.67 6.7 0.34 3.4 0 0 Z " fill="#D7D8DF" transform="translate(68,87)"/>
<path d="M0 0 C1.32 0 2.64 0 4 0 C2.72792024 3.52740958 1.22420785 6.16969698 -1.0625 9.125 C-4.58650004 14.20950614 -4.97729606 18.92669664 -5 25 C-5.33 25 -5.66 25 -6 25 C-7.53664905 16.21316133 -7.19807339 10.69550415 -2.4453125 3.046875 C-1 1 -1 1 0 0 Z " fill="#E1E2E9" transform="translate(149,87)"/>
<path d="M0 0 C3.3 0 6.6 0 10 0 C10.33 0.66 10.66 1.32 11 2 C10.34 2.66 9.68 3.32 9 4 C9 3.01 9 2.02 9 1 C6.03 1 3.06 1 0 1 C0 0.67 0 0.34 0 0 Z M0 4 C2.97 4 5.94 4 9 4 C8.360625 4.598125 7.72125 5.19625 7.0625 5.8125 C4.79689611 7.90810337 4.79689611 7.90810337 4 11 C4.99 11.33 5.98 11.66 7 12 C4.69 12 2.38 12 0 12 C0 9.36 0 6.72 0 4 Z " fill="#2F2D42" transform="translate(72,97)"/>
<path d="M0 0 C0.66 0 1.32 0 2 0 C3.32 3.63 4.64 7.26 6 11 C2.7 11 -0.6 11 -4 11 C-2.68 7.37 -1.36 3.74 0 0 Z " fill="#2D2B42" transform="translate(167,92)"/>
<path d="M0 0 C5.28 0 10.56 0 16 0 C16.33 0.99 16.66 1.98 17 3 C15.0625 5.6875 15.0625 5.6875 13 8 C13 5.69 13 3.38 13 1 C9.37 1 5.74 1 2 1 C2 3.64 2 6.28 2 9 C5.63 9 9.26 9 13 9 C13 9.33 13 9.66 13 10 C11.02090602 10.02686553 9.04171029 10.04633375 7.0625 10.0625 C5.96035156 10.07410156 4.85820313 10.08570312 3.72265625 10.09765625 C1 10 1 10 0 9 C-0.14193337 5.99668982 -0.04236378 3.00782866 0 0 Z " fill="#4E2B22" transform="translate(39,78)"/>
<path d="M0 0 C3.63 0 7.26 0 11 0 C11 0.66 11 1.32 11 2 C8.03 1.67 5.06 1.34 2 1 C2.185625 1.99 2.37125 2.98 2.5625 4 C3.17661683 8.17087678 2.65520905 11.85034269 2 16 C4.97 16 7.94 16 11 16 C11 16.33 11 16.66 11 17 C7.37 17 3.74 17 0 17 C0 11.39 0 5.78 0 0 Z " fill="#513D3F" transform="translate(19,104)"/>
<path d="M0 0 C3.96 0.33 7.92 0.66 12 1 C12 1.99 12 2.98 12 4 C8.7 4 5.4 4 2 4 C2 5.65 2 7.3 2 9 C1.01 9.495 1.01 9.495 0 10 C0 6.7 0 3.4 0 0 Z " fill="#F7F7FA" transform="translate(69,97)"/>
<path d="M0 0 C1.32 0.33 2.64 0.66 4 1 C3.34 1 2.68 1 2 1 C2.33 2.32 2.66 3.64 3 5 C2.34 5 1.68 5 1 5 C0.87625 5.763125 0.7525 6.52625 0.625 7.3125 C0 10 0 10 -2 13 C-2.99 13.33 -3.98 13.66 -5 14 C-4.34580901 8.93001981 -2.1453591 4.58009223 0 0 Z " fill="#E3E3E8" transform="translate(166,87)"/>
<path d="M0 0 C3.63 0 7.26 0 11 0 C7.5647952 2.29013653 6.014669 2.17842973 2 2 C2 3.98 2 5.96 2 8 C4.97 8 7.94 8 11 8 C11 8.33 11 8.66 11 9 C7.37 9 3.74 9 0 9 C0 6.03 0 3.06 0 0 Z " fill="#84563D" transform="translate(30,95)"/>
<path d="M0 0 C-0.33 3.63 -0.66 7.26 -1 11 C-1.33 11 -1.66 11 -2 11 C-2 8.03 -2 5.06 -2 2 C-7.28 2 -12.56 2 -18 2 C-18 1.67 -18 1.34 -18 1 C-11.96445452 0.30739642 -6.07593562 -0.11251733 0 0 Z " fill="#381E24" transform="translate(54,93)"/>
<path d="M0 0 C4.62 0 9.24 0 14 0 C14.33 0.99 14.66 1.98 15 3 C13.0625 5.6875 13.0625 5.6875 11 8 C11 5.69 11 3.38 11 1 C7.37 1 3.74 1 0 1 C0 0.67 0 0.34 0 0 Z " fill="#52332D" transform="translate(41,78)"/>
<path d="M0 0 C0.66 0 1.32 0 2 0 C2.66 2.31 3.32 4.62 4 7 C3.38125 6.814375 2.7625 6.62875 2.125 6.4375 C-0.04160178 5.76313824 -0.04160178 5.76313824 -2 7 C-1.34 4.69 -0.68 2.38 0 0 Z " fill="#38374A" transform="translate(167,92)"/>
<path d="M0 0 C1.32 0 2.64 0 4 0 C4.66 1.65 5.32 3.3 6 5 C5.01 5.33 4.02 5.66 3 6 C0 2.25 0 2.25 0 0 Z " fill="#E3E4EC" transform="translate(131,87)"/>
<path d="M0 0 C0.33 0 0.66 0 1 0 C1 1.65 1 3.3 1 5 C1.66 5 2.32 5 3 5 C3 6.32 3 7.64 3 9 C2.01 9.33 1.02 9.66 0 10 C0 6.7 0 3.4 0 0 Z " fill="#30202D" transform="translate(52,112)"/>
<path d="M0 0 C0.99 0.33 1.98 0.66 3 1 C1.625 3.5 1.625 3.5 0 6 C-0.66 6 -1.32 6 -2 6 C-2.33 5.01 -2.66 4.02 -3 3 C-2.01 2.67 -1.02 2.34 0 2 C0 1.34 0 0.68 0 0 Z " fill="#393A4B" transform="translate(143,92)"/>
</svg>
