<?xml version="1.0" encoding="UTF-8"?>
<svg version="1.1" xmlns="http://www.w3.org/2000/svg" width="1902" height="1899">
<path d="M0 0 C1.86591797 0.02682861 1.86591797 0.02682861 3.76953125 0.05419922 C94.76891614 1.45692914 185.3895177 13.55426439 476.20996094 127.33740234 C478.82532684 128.89591143 481.44687382 130.44341321 484.0703125 131.98828125 C504.61377563 144.13720021 524.59894554 157.1015838 544 171 C544.76892578 171.5475293 545.53785156 172.09505859 546.33007812 172.65917969 C557.39944397 180.542477 568.26703326 188.66499153 579 197 C579.63454102 197.49274414 580.26908203 197.98548828 580.92285156 198.49316406 C592.60226326 207.58122538 604.02943892 216.95492526 615.29541016 226.54980469 C617.02119329 228.01803039 618.75074272 229.48173533 620.48046875 230.9453125 C627.4601792 236.8691951 634.2693028 242.94066273 640.96484375 249.18359375 C643.71334008 251.74463343 646.50626629 254.25223778 649.3125 256.75 C652.95080912 260.00625728 656.43098992 263.36853793 659.8203125 266.8828125 C661.73223146 268.73990941 663.68922275 270.475405 665.70703125 272.21484375 C670.182875 276.10508242 674.38194482 280.23424497 678.5625 284.4375 C679.27857422 285.14970703 679.99464844 285.86191406 680.73242188 286.59570312 C684.79847518 290.66915598 688.66822239 294.84831844 692.42553711 299.20727539 C694.51215177 301.5831494 696.73506521 303.79466876 699 306 C702.54918157 309.5117655 705.91968457 313.09008901 709.1640625 316.8828125 C711.3520617 319.40599455 713.61293113 321.85554519 715.875 324.3125 C719.94859909 328.77873514 723.80827703 333.36921379 727.6015625 338.07421875 C729.77236453 340.72231439 731.99294623 343.31146423 734.2421875 345.89233398 C740.34479339 352.90499493 746.044176 360.16033677 751.64453125 367.578125 C753.90469534 370.57043623 756.19349323 373.53681623 758.51171875 376.484375 C759.40141357 377.61697754 759.40141357 377.61697754 760.30908203 378.77246094 C761.41235281 380.17405416 762.51840309 381.57346837 763.62841797 382.96972656 C774.10201292 396.30792191 783.48247831 410.51661143 792.875 424.625 C793.39569061 425.406474 793.91638123 426.187948 794.45285034 426.99310303 C802.97662586 439.80229286 811.21238181 452.72702776 819 466 C819.88510254 467.49273437 819.88510254 467.49273437 820.78808594 469.015625 C830.18711986 484.88297045 838.88981859 501.0347179 847.21533203 517.48193359 C848.91076511 520.82409375 850.62343878 524.15685587 852.33984375 527.48828125 C890.06260213 601.18295269 915.05704716 681.08885086 948.85284424 877.95770264 C948.95170831 879.32978499 949.05244464 880.7017336 949.15496826 882.07354736 C955.5839874 968.15444064 949.08316316 1055.7816635 824.66748047 1424.18261719 C823.088392 1426.85065247 821.54069741 1429.53399437 820.00390625 1432.2265625 C805.04369085 1458.28257729 787.86989964 1483.57931222 769.9375 1507.6875 C769.34735107 1508.48438232 768.75720215 1509.28126465 768.14916992 1510.10229492 C763.17833825 1516.79735641 758.1280094 1523.42456859 753 1530 C752.10934315 1531.14971491 751.21871916 1532.29945528 750.328125 1533.44921875 C744.91792439 1540.40889161 739.35099374 1547.20457234 733.625 1553.90625 C731.16084036 1556.7955132 728.76339 1559.73518458 726.375 1562.6875 C722.74931653 1567.14191113 718.97570347 1571.42948601 715.109375 1575.67578125 C713.25373343 1577.72042335 711.43243624 1579.78784149 709.625 1581.875 C705.84686212 1586.20900184 701.96170643 1590.44286067 698.06396484 1594.66894531 C696.17792775 1596.71588028 694.30144972 1598.77012496 692.43139648 1600.83178711 C684.39164403 1609.65073551 676.02967457 1618.12387408 667.58056641 1626.54980469 C665.23613323 1628.88883481 662.89715129 1631.23322197 660.55859375 1633.578125 C659.04459166 1635.09146687 657.5302797 1636.60449881 656.015625 1638.1171875 C655.32897766 1638.80585907 654.64233032 1639.49453064 653.93487549 1640.20407104 C650.0165851 1644.103687 645.99923621 1647.82961841 641.80580139 1651.43231201 C638.8538454 1653.99502238 636.03054146 1656.69291641 633.1875 1659.375 C628.14568357 1664.09747432 622.97635433 1668.5665215 617.58203125 1672.88671875 C614.95578232 1675.03619026 612.44366547 1677.27460088 609.9375 1679.5625 C605.12509075 1683.9367307 600.11800125 1687.99077664 595 1692 C594.00871094 1692.78632812 593.01742188 1693.57265625 591.99609375 1694.3828125 C577.1817005 1706.1207486 562.28373066 1717.78477314 546.56054688 1728.28808594 C544.01543319 1729.98968178 541.47630259 1731.70001453 538.93769836 1733.41130066 C465.95738488 1782.57685316 387.79376875 1821.59274042 86.9375 1895.1875 C86.14816071 1895.26649536 85.35882141 1895.34549072 84.54556274 1895.42687988 C55.78326752 1898.26858577 26.96282318 1899.34765725 -1.92724609 1899.26074219 C-5.7377959 1899.24934889 -9.54806598 1899.25615456 -13.35860634 1899.26762009 C-42.17874051 1899.34096398 -70.93727591 1898.08743064 -99.625 1895.25 C-100.89917786 1895.12644638 -100.89917786 1895.12644638 -102.19909668 1895.00039673 C-145.87525015 1890.72803374 -189.37583409 1883.4612272 -232 1873 C-232.76896606 1872.81135376 -233.53793213 1872.62270752 -234.3302002 1872.42834473 C-315.05659457 1852.54146411 -394.26500321 1822.66432356 -466.19238281 1780.63037109 C-469.23786463 1778.86187305 -472.30077218 1777.12646249 -475.3671875 1775.39453125 C-488.93140344 1767.70600317 -502.12091699 1759.60290878 -515.08642578 1750.94433594 C-518.14389795 1748.90397157 -521.20995047 1746.87697687 -524.27734375 1744.8515625 C-534.99630223 1737.76002358 -545.63388858 1730.59922744 -556 1723 C-556.72493652 1722.47196777 -557.44987305 1721.94393555 -558.19677734 1721.39990234 C-568.62777877 1713.80106027 -578.94040988 1706.08488869 -589 1698 C-589.6403418 1697.4858252 -590.28068359 1696.97165039 -590.94042969 1696.44189453 C-599.51909554 1689.54040139 -608.00664201 1682.53959185 -616.37597656 1675.38574219 C-618.06714221 1673.94270908 -619.76374619 1672.50625183 -621.4609375 1671.0703125 C-628.45773135 1665.13358031 -635.28272067 1659.04836687 -641.9921875 1652.7890625 C-644.58095952 1650.376464 -647.21992565 1648.02711998 -649.875 1645.6875 C-655.00620975 1641.1030585 -659.8311497 1636.22554523 -664.64794922 1631.31518555 C-667.35579295 1628.56954288 -670.01943704 1625.98418852 -673.015625 1623.546875 C-676.07617181 1620.93499474 -678.54792779 1618.15635602 -681.15234375 1615.10546875 C-684.26040449 1611.56372512 -687.6375124 1608.29807213 -691 1605 C-695.65517827 1600.43400139 -700.13165105 1595.8038916 -704.38769531 1590.86181641 C-706.65499758 1588.24363847 -709.01432148 1585.72186207 -711.375 1583.1875 C-715.64519259 1578.56566169 -719.68225373 1573.80576052 -723.62890625 1568.90234375 C-726.31831577 1565.61036472 -729.09181954 1562.40005506 -731.875 1559.1875 C-737.28625049 1552.91465068 -742.43991422 1546.47374349 -747.5078125 1539.921875 C-749.11074785 1537.85736141 -750.72632058 1535.80317524 -752.34375 1533.75 C-764.51371392 1518.26650764 -775.9697213 1502.31221977 -787 1486 C-787.47791992 1485.29407715 -787.95583984 1484.5881543 -788.44824219 1483.86083984 C-808.6878071 1453.90174756 -826.87713113 1422.83260248 -844 1391 C-844.45729492 1390.1553418 -844.91458984 1389.31068359 -845.38574219 1388.44042969 C-887.39248978 1310.68711934 -916.33073541 1224.62228376 -950 999 C-950.04343536 998.02027222 -950.08687073 997.04054443 -950.13162231 996.03112793 C-950.86792051 979.01771141 -951.20358028 962.02887027 -951.1875 945 C-951.18689575 943.79654938 -951.1862915 942.59309875 -951.18566895 941.35317993 C-951.06560168 852.27132503 -938.30560591 764.74927768 -898 633 C-897.77652893 632.35623413 -897.55305786 631.71246826 -897.32281494 631.04919434 C-885.92643074 598.22229789 -872.15828566 566.25670843 -857 535 C-856.69642578 534.37329407 -856.39285156 533.74658813 -856.08007812 533.10089111 C-848.09710526 516.64486334 -839.71878158 500.48966694 -830.53662109 484.66308594 C-829.02213791 482.03836675 -827.53261389 479.40108154 -826.05078125 476.7578125 C-800.59081073 431.44697471 -770.31923657 389.00999556 -737.46777344 348.79980469 C-736.18503868 347.22689706 -734.90840587 345.64901716 -733.6328125 344.0703125 C-724.8281368 333.201537 -715.64301061 322.66946242 -706.109375 312.43554688 C-703.41472401 309.54222858 -700.76859174 306.61998618 -698.1875 303.625 C-695.5324589 300.55209529 -692.72166695 297.69800916 -689.82324219 294.85571289 C-688.14596608 293.14856563 -686.60171636 291.39428214 -685.05859375 289.56640625 C-680.36302401 284.16792922 -675.29658206 279.14681964 -670.23022461 274.09985352 C-668.56573723 272.4407268 -666.90666553 270.77631949 -665.24804688 269.11132812 C-660.18796015 264.04840593 -655.12419223 259.05706961 -649.65014648 254.43579102 C-647.84688521 252.86677495 -646.17323563 251.20629272 -644.5 249.5 C-641.51127663 246.46405075 -638.38293521 243.65491341 -635.15625 240.875 C-632.80037042 238.82640906 -630.4949254 236.72796998 -628.1875 234.625 C-623.89040173 230.74649273 -619.46241246 227.07134032 -614.9609375 223.43359375 C-612.30230944 221.24846805 -609.6995161 219.0160025 -607.10546875 216.75561523 C-600.09301596 210.654346 -592.83885787 204.95521596 -585.421875 199.35546875 C-582.42956377 197.09530466 -579.46318377 194.80650677 -576.515625 192.48828125 C-575.76055664 191.89515137 -575.00548828 191.30202148 -574.22753906 190.69091797 C-572.82594584 189.58764719 -571.42653163 188.48159691 -570.03027344 187.37158203 C-556.31590478 176.60260328 -541.6882074 166.97724286 -527.1875 157.3125 C-526.34338562 156.7496228 -525.49927124 156.18674561 -524.62957764 155.60681152 C-493.64469242 134.97838041 -461.52494778 116.59259839 -428.35791016 99.71044922 C-425.33260955 98.16942435 -422.31246688 96.61875515 -419.29296875 95.06640625 C-380.06134341 75.0252942 -338.78721913 58.85366086 -297 45 C-296.2462207 44.74968018 -295.49244141 44.49936035 -294.71582031 44.24145508 C-215.37968473 17.99127671 -132.90149547 3.4258861 0 0 Z " fill="#283557" transform="translate(951,0)"/>
<path d="M0 0 C6.71298839 3.01280089 11.21423076 9.17946652 15.93359375 14.6484375 C18.49214014 17.56005362 21.11643704 20.40630344 23.75 23.25 C24.26433594 23.80550537 24.77867187 24.36101074 25.30859375 24.93334961 C26.35683478 26.06519569 27.40517489 27.19695001 28.45361328 28.32861328 C34.15708178 34.49311365 39.83048997 40.68507875 45.4375 46.9375 C48.92448097 50.82370598 52.45331985 54.66842807 56 58.5 C60.28224608 63.12622317 64.52207812 67.78678623 68.73046875 72.48046875 C73.11871554 77.35210245 77.56373809 82.17212324 82 87 C92.36190257 98.27660846 92.36190257 98.27660846 97.4375 103.9375 C100.92448097 107.82370598 104.45331985 111.66842807 108 115.5 C112.28224608 120.12622317 116.52207812 124.78678623 120.73046875 129.48046875 C125.11871554 134.35210245 129.56373809 139.17212324 134 144 C139.93018671 150.45367906 145.84011178 156.92332736 151.6953125 163.4453125 C156.09832536 168.32594032 160.55252509 173.15992041 165 178 C175.36190257 189.27660846 175.36190257 189.27660846 180.4375 194.9375 C183.92448097 198.82370598 187.45331985 202.66842807 191 206.5 C195.28224608 211.12622317 199.52207812 215.78678623 203.73046875 220.48046875 C208.11871554 225.35210245 212.56373809 230.17212324 217 235 C227.36190257 246.27660846 227.36190257 246.27660846 232.4375 251.9375 C235.92448097 255.82370598 239.45331985 259.66842807 243 263.5 C247.28224608 268.12622317 251.52207812 272.78678623 255.73046875 277.48046875 C260.11871554 282.35210245 264.56373809 287.17212324 269 292 C274.93018671 298.45367906 280.84011178 304.92332736 286.6953125 311.4453125 C291.09832536 316.32594032 295.55252509 321.15992041 300 326 C310.36190257 337.27660846 310.36190257 337.27660846 315.4375 342.9375 C318.92448097 346.82370598 322.45331985 350.66842807 326 354.5 C330.28224608 359.12622317 334.52207812 363.78678623 338.73046875 368.48046875 C343.11871554 373.35210245 347.56373809 378.17212324 352 383 C357.93018671 389.45367906 363.84011178 395.92332736 369.6953125 402.4453125 C374.09832536 407.32594032 378.55252509 412.15992041 383 417 C388.93018671 423.45367906 394.84011178 429.92332736 400.6953125 436.4453125 C405.09832536 441.32594032 409.55252509 446.15992041 414 451 C419.89603702 457.41651477 425.77684397 463.84422098 431.5859375 470.33984375 C433.44869421 472.39249313 435.32790994 474.42235404 437.2265625 476.44140625 C437.77900635 477.03123291 438.3314502 477.62105957 438.90063477 478.22875977 C439.99329969 479.39333799 441.09003874 480.55410942 442.19116211 481.71069336 C446 485.77737935 446 485.77737935 446 488 C449.73904225 484.94772061 453.16406 481.93711185 456.296875 478.26171875 C459.82510409 474.17758599 463.48086364 470.23449619 467.1875 466.3125 C468.51080806 464.9066183 469.83371972 463.50036339 471.15625 462.09375 C472.13078125 461.05734375 472.13078125 461.05734375 473.125 460 C475.82719241 457.11766143 478.51026048 454.21800706 481.1875 451.3125 C481.9141687 450.5239563 481.9141687 450.5239563 482.65551758 449.71948242 C484.10408905 448.14669916 485.55206724 446.57337127 487 445 C493.92546877 437.47939192 500.87671891 429.98412914 507.85888672 422.51611328 C512.32284221 417.73691018 516.7442573 412.92098907 521.15625 408.09375 C525.00997055 403.88969122 528.91281644 399.73143815 532.80859375 395.56640625 C536.39387131 391.7300808 539.95752254 387.8758871 543.5 384 C548.23331851 378.82119269 553.01594724 373.69029399 557.80859375 368.56640625 C561.39387131 364.7300808 564.95752254 360.8758871 568.5 357 C573.23331851 351.82119269 578.01594724 346.69029399 582.80859375 341.56640625 C586.39387131 337.7300808 589.95752254 333.8758871 593.5 330 C598.23331851 324.82119269 603.01594724 319.69029399 607.80859375 314.56640625 C611.39387131 310.7300808 614.95752254 306.8758871 618.5 303 C623.20987715 297.84749122 627.96641765 292.74032252 632.73388672 287.64111328 C638.51713995 281.45301651 644.26178773 275.22983956 650 269 C656.92636539 261.48021107 663.8767116 253.98413695 670.85888672 246.51611328 C675.32284221 241.73691018 679.7442573 236.92098907 684.15625 232.09375 C688.00261117 227.89771963 691.89754551 223.74696591 695.78662109 219.59057617 C700.46070006 214.59056378 705.08844704 209.5502322 709.6953125 204.48828125 C710.83613281 203.25658203 710.83613281 203.25658203 712 202 C712.67804688 201.23042969 713.35609375 200.46085938 714.0546875 199.66796875 C716 198 716 198 720 198 C721.6484375 199.921875 721.6484375 199.921875 723.375 202.75 C724.42300781 204.40322266 724.42300781 204.40322266 725.4921875 206.08984375 C725.88631836 206.7122998 726.28044922 207.33475586 726.68652344 207.97607422 C729.18579459 211.82718163 731.85435565 215.56118572 734.5 219.3125 C735.72173242 221.0518177 736.94307607 222.79140854 738.1640625 224.53125 C738.7921582 225.42585937 739.42025391 226.32046875 740.06738281 227.2421875 C743.34836672 231.92409682 746.61176489 236.61821029 749.875 241.3125 C750.54208984 242.27196533 751.20917969 243.23143066 751.89648438 244.2199707 C753.25366586 246.17214134 754.610762 248.12437131 755.96777344 250.07666016 C759.31061055 254.88530162 762.65539381 259.69258892 766 264.5 C767.33334287 266.41666003 768.6666762 268.3333267 770 270.25 C770.66 271.19875 771.32 272.1475 772 273.125 C795.33333333 306.66666667 818.66666667 340.20833333 842 373.75 C842.99060425 375.17397095 842.99060425 375.17397095 844.0012207 376.62670898 C845.33054229 378.5376392 846.65980689 380.44860907 847.98901367 382.35961914 C851.38325348 387.23938502 854.7785719 392.11839466 858.17578125 396.99609375 C864.01304247 405.37901517 869.84963106 413.76177581 875.625 422.1875 C880.19454373 428.85291377 884.82252354 435.47632141 889.46191406 442.09326172 C895.9886575 451.40383224 902.47812613 460.74021261 908.96777344 470.07666016 C912.31061055 474.88530162 915.65539381 479.69258892 919 484.5 C920.33334287 486.41666003 921.6666762 488.3333267 923 490.25 C923.66 491.19875 924.32 492.1475 925 493.125 C932.33333333 503.66666667 939.66666667 514.20833333 947 524.75 C947.66040283 525.69931396 948.32080566 526.64862793 949.0012207 527.62670898 C950.33054229 529.5376392 951.65980689 531.44860907 952.98901367 533.35961914 C956.38325348 538.23938502 959.7785719 543.11839466 963.17578125 547.99609375 C969.01304247 556.37901517 974.84963106 564.76177581 980.625 573.1875 C985.19454373 579.85291377 989.82252354 586.47632141 994.46191406 593.09326172 C1000.9886575 602.40383224 1007.47812613 611.74021261 1013.96777344 621.07666016 C1017.31061055 625.88530162 1020.65539381 630.69258892 1024 635.5 C1025.33334287 637.41666003 1026.6666762 639.3333267 1028 641.25 C1028.66 642.19875 1029.32 643.1475 1030 644.125 C1064 693 1098 741.875 1132 790.75 C1132.66040283 791.69931396 1133.32080566 792.64862793 1134.0012207 793.62670898 C1135.33054229 795.5376392 1136.65980689 797.44860907 1137.98901367 799.35961914 C1141.38325348 804.23938502 1144.7785719 809.11839466 1148.17578125 813.99609375 C1151.51177653 818.7864515 1154.84509433 823.57865748 1158.17529297 828.37304688 C1159.36127479 830.08045447 1160.54776977 831.78750576 1161.73486328 833.49414062 C1163.28435631 835.7233489 1164.83031538 837.95495819 1166.375 840.1875 C1166.82141846 840.82872803 1167.26783691 841.46995605 1167.7277832 842.13061523 C1172.78522972 849.46095891 1173.91827805 854.40654724 1172.46484375 863.25976562 C1171.70143664 867.10391672 1170.86848988 870.92858786 1170 874.75 C1169.84316742 875.45140106 1169.68633484 876.15280212 1169.52474976 876.87545776 C1166.1981426 891.72869279 1162.31605903 906.40273636 1158 921 C1157.78023499 921.74330566 1157.56046997 922.48661133 1157.33404541 923.25244141 C1150.86591094 945.06862455 1144.04117917 966.70478242 1136 988 C1135.56864746 989.14436523 1135.13729492 990.28873047 1134.69287109 991.46777344 C1118.76524419 1033.44134446 1099.61326378 1075.56779648 1076.21875 1113.97753906 C1074.97491604 1116.0416257 1073.76591203 1118.1230557 1072.5625 1120.2109375 C1065.77482581 1131.89054926 1058.36594041 1143.13944787 1050.875 1154.375 C1050.36402771 1155.14236481 1049.85305542 1155.90972961 1049.32659912 1156.7003479 C1040.88486483 1169.36125712 1032.2251071 1181.84717599 1023.0625 1194 C1022.56290771 1194.66386719 1022.06331543 1195.32773438 1021.54858398 1196.01171875 C1010.75175949 1210.30989403 999.49433799 1224.25769186 988 1238 C986.13964844 1237.80981445 986.13964844 1237.80981445 984 1237 C982.79003906 1234.88745117 982.79003906 1234.88745117 981.765625 1232.04296875 C981.36512939 1230.96901855 980.96463379 1229.89506836 980.55200195 1228.78857422 C980.12234131 1227.60021973 979.69268066 1226.41186523 979.25 1225.1875 C978.28250184 1222.60566907 977.29768215 1220.03065988 976.30859375 1217.45703125 C975.91676155 1216.43506653 975.91676155 1216.43506653 975.51701355 1215.39245605 C972.37567424 1207.27327316 968.86616761 1199.3205615 965.3125 1191.375 C964.97605469 1190.62259033 964.63960937 1189.87018066 964.29296875 1189.0949707 C953.21979427 1164.38821328 941.86347728 1139.8338555 929 1116 C928.2582251 1114.61748047 928.2582251 1114.61748047 927.50146484 1113.20703125 C920.58288719 1100.3249284 913.42054016 1087.59927779 906 1075 C905.62842773 1074.36610352 905.25685547 1073.73220703 904.87402344 1073.07910156 C879.43056543 1029.74389682 850.24169451 988.69108408 818.46777344 949.79980469 C817.18503868 948.22689706 815.90840587 946.64901716 814.6328125 945.0703125 C805.63891982 933.96796147 796.22811968 923.23008394 786.52734375 912.7421875 C784.26405783 910.28650479 782.03347539 907.80637407 779.8125 905.3125 C769.83359237 894.22090001 759.53227945 883.44136115 749 872.875 C747.83525146 871.70336304 747.83525146 871.70336304 746.64697266 870.50805664 C742.4654026 866.33772012 738.18971639 862.35006765 733.71484375 858.49658203 C731.71427359 856.75064025 729.84401381 854.90987144 728 853 C724.8288397 849.78565269 721.54417247 846.78249037 718.12109375 843.83984375 C715.77508942 841.80491181 713.4826355 839.71709033 711.1875 837.625 C706.89526382 833.75088119 702.47221326 830.07982452 697.9765625 826.4453125 C695.24774852 824.20353094 692.56999299 821.91622107 689.90209961 819.60302734 C683.36615913 813.93716879 676.68281892 808.5555456 669.77636719 803.34667969 C667.85541324 801.8903875 665.94648875 800.41927453 664.0390625 798.9453125 C659.71191766 795.60465124 655.36355355 792.29294926 651 789 C650.3615918 788.51789062 649.72318359 788.03578125 649.06542969 787.5390625 C612.52002178 760.13473798 573.17719452 736.61145429 533 715 C532.1553418 714.54270508 531.31068359 714.08541016 530.44042969 713.61425781 C515.26641168 705.41639278 499.72523862 698.07429452 484 691 C482.80197754 690.46084961 481.60395508 689.92169922 480.36962891 689.36621094 C436.30304442 669.65860572 390.00842298 652.01112667 343.125 640.375 C335.32818805 638.42579701 327.63982281 636.30109025 319.96923828 633.90136719 C316.13587064 632.73767755 312.28963818 631.78132097 308.375 630.9375 C307.25847046 630.69108765 307.25847046 630.69108765 306.11938477 630.43969727 C299.66673748 629.05607426 293.17177938 628.0083788 286.63232422 627.12670898 C281.26816013 626.36149048 275.95442063 625.26493717 271 623 C269.69279637 620.38559273 269.83950621 618.38713534 269.7890625 615.4609375 C269.76287842 614.33042969 269.73669434 613.19992187 269.7097168 612.03515625 C269.68176025 610.82730469 269.65380371 609.61945312 269.625 608.375 C269.00007756 588.0135013 266.45038432 565.49798781 250.8125 550.625 C237.90320377 540.086799 223.20454299 537.49717151 207 539 C179.75133251 542.73238431 154.18279965 552.6211266 131.1328125 567.63671875 C126.86863387 569.49232765 123.57715497 569.85804765 119 569 C115.0964808 567.45647048 111.51818624 565.4499434 107.875 563.375 C105.82689668 562.26068881 103.77611261 561.15129051 101.72265625 560.046875 C100.73668457 559.51513672 99.75071289 558.98339844 98.73486328 558.43554688 C64.76182747 540.60288748 22.23218598 536.17995525 -15 544 C-15.86415527 544.17692383 -16.72831055 544.35384766 -17.61865234 544.53613281 C-34.9773987 548.16389464 -50.5613558 553.83411228 -66.23681641 562.07568359 C-67.77913987 562.88421816 -69.33211542 563.67236678 -70.88671875 564.45703125 C-82.4527304 570.45614342 -93.10446546 578.37057187 -103.375 586.34375 C-109.57557693 590.25601878 -115.21676242 591.43614698 -122.38671875 591.40625 C-123.23287247 591.41599854 -124.07902618 591.42574707 -124.95082092 591.43579102 C-126.8448025 591.45705959 -128.73885983 591.47220434 -130.63293457 591.48217773 C-136.18153951 591.5145518 -141.7293278 591.60290277 -147.27734375 591.6875 C-148.56907501 591.70647339 -149.86080627 591.72544678 -151.19168091 591.74499512 C-172.23479885 592.07297017 -193.27101305 592.7673847 -214.30673599 593.39749146 C-218.86888745 593.53331012 -223.43113262 593.66582889 -227.99337673 593.79849243 C-232.36636301 593.92629139 -236.73926713 594.05673977 -241.11215019 594.1880188 C-243.1623021 594.24923736 -245.21247894 594.30962768 -247.26268196 594.36911011 C-258.52923342 594.69737576 -269.76040755 595.13568862 -281 596 C-293.16150117 630.66027833 -296.2304436 667.15036493 -280.02539062 701.03808594 C-275.65634687 709.62356214 -270.28710952 717.97545574 -263.26953125 724.64453125 C-262 726 -262 726 -262 728 C-261.41863281 728.25652344 -260.83726562 728.51304687 -260.23828125 728.77734375 C-257.79593858 730.11146811 -256.17634553 731.62072773 -254.1875 733.5625 C-240.43620062 745.9364479 -221.92249099 753.4366786 -205.59375 761.75390625 C-164.62155338 782.74329229 -123.08240529 811.84003857 -94.19921875 848.2421875 C-91.92463583 851.0945064 -89.56130007 853.85493759 -87.1875 856.625 C-76.51787423 869.46163503 -67.65157202 883.17879277 -60 898 C-59.64454102 898.6796582 -59.28908203 899.35931641 -58.92285156 900.05957031 C-49.55061804 918.17922179 -43.32222955 937.89462714 -40 958 C-39.88430664 958.67450195 -39.76861328 959.34900391 -39.64941406 960.04394531 C-34.19667456 993.10016731 -39.76279009 1025.5499896 -50 1057 C-50.24556641 1057.75829102 -50.49113281 1058.51658203 -50.74414062 1059.29785156 C-65.33798691 1103.48370543 -92.58424385 1142.30418235 -123 1177 C-123.65484375 1177.75539063 -124.3096875 1178.51078125 -124.984375 1179.2890625 C-126.64591792 1181.20212339 -128.31951599 1183.10356594 -130 1185 C-130.92039062 1186.04220703 -130.92039062 1186.04220703 -131.859375 1187.10546875 C-143.94694508 1200.66990359 -156.22967107 1214.41672787 -170.03515625 1226.25390625 C-172.10820324 1228.09615675 -174.05435802 1230.02401662 -176 1232 C-179.1711603 1235.21434731 -182.45582753 1238.21750963 -185.87890625 1241.16015625 C-188.22491058 1243.19508819 -190.5173645 1245.28290967 -192.8125 1247.375 C-197.12909713 1251.2704657 -201.5740113 1254.96858218 -206.09375 1258.625 C-208.65415213 1260.71737163 -211.178238 1262.84277289 -213.69189453 1264.99047852 C-218.86230696 1269.40768383 -224.09626011 1273.7279571 -229.4375 1277.9375 C-230.0044458 1278.38593262 -230.5713916 1278.83436523 -231.15551758 1279.29638672 C-240.89203854 1286.9147722 -240.89203854 1286.9147722 -244.4375 1287.1875 C-250.57474844 1284.34340926 -254.78273091 1278.13575199 -259.1171875 1273.1015625 C-261.16722274 1270.81334889 -263.31295092 1268.65739418 -265.5 1266.5 C-268.87100065 1263.16879193 -272.0451403 1259.74888372 -275.12890625 1256.15234375 C-277.33079829 1253.61947838 -279.60195826 1251.15667478 -281.875 1248.6875 C-285.96880209 1244.19851943 -289.85469667 1239.58756524 -293.66796875 1234.859375 C-295.70492358 1232.36180224 -297.78357627 1229.90746921 -299.88525391 1227.46435547 C-306.40061961 1219.87669344 -312.45719923 1211.97323442 -318.48486328 1203.99560547 C-319.84203403 1202.20805895 -321.2109756 1200.43098692 -322.58984375 1198.66015625 C-377.01120736 1128.71503252 -417.89879645 1048.52050107 -467 898 C-467.26699707 896.98260742 -467.53399414 895.96521484 -467.80908203 894.91699219 C-479.23820077 851.16788255 -486.18906001 806.0352777 -490 761 C-490.05845093 760.31570923 -490.11690186 759.63141846 -490.17712402 758.9263916 C-490.93726011 749.9582836 -491.53847015 740.98843623 -492 732 C-492.08604492 730.5754248 -492.08604492 730.5754248 -492.17382812 729.12207031 C-492.78820143 718.33942989 -492.2629762 710.20130709 -486 701 C-485.57605957 700.37448242 -485.15211914 699.74896484 -484.71533203 699.10449219 C-481.72737202 694.7263225 -478.64180071 690.42374111 -475.53173828 686.13183594 C-473.21993412 682.91432336 -470.98329034 679.64727409 -468.75 676.375 C-464.29939677 669.87584862 -459.81280784 663.40232678 -455.3125 656.9375 C-454.63711182 655.96723877 -453.96172363 654.99697754 -453.26586914 653.99731445 C-450.47693402 649.99165254 -447.68717848 645.98656232 -444.89746094 641.98144531 C-437.98041954 632.04969711 -431.06506152 622.11753006 -424.22143555 612.13500977 C-419.48194959 605.22945468 -414.68920444 598.36103654 -409.90234375 591.48828125 C-406.08428476 586.0038967 -402.27847717 580.51172358 -398.5 575 C-393.33801536 567.4701325 -388.12004103 559.97961198 -382.90234375 552.48828125 C-379.08428476 547.0038967 -375.27847717 541.51172358 -371.5 536 C-367.02976302 529.4791956 -362.518449 522.98747615 -358 516.5 C-351.63243875 507.35654858 -345.29942334 498.19048639 -339 489 C-332.00925699 478.80091907 -324.97046868 468.63647471 -317.90356445 458.48999023 C-314.08506675 453.00505795 -310.27887301 447.512301 -306.5 442 C-301.33801536 434.4701325 -296.12004103 426.97961198 -290.90234375 419.48828125 C-287.08428476 414.0038967 -283.27847717 408.51172358 -279.5 403 C-274.33801536 395.4701325 -269.12004103 387.97961198 -263.90234375 380.48828125 C-260.08428476 375.0038967 -256.27847717 369.51172358 -252.5 364 C-247.33801536 356.4701325 -242.12004103 348.97961198 -236.90234375 341.48828125 C-233.08428476 336.0038967 -229.27847717 330.51172358 -225.5 325 C-220.33801536 317.4701325 -215.12004103 309.97961198 -209.90234375 302.48828125 C-206.08428476 297.0038967 -202.27847717 291.51172358 -198.5 286 C-193.33801536 278.4701325 -188.12004103 270.97961198 -182.90234375 263.48828125 C-178.65249114 257.38365426 -174.42376631 251.26535736 -170.21826172 245.13012695 C-166.21475365 239.29667652 -162.17001826 233.49221547 -158.125 227.6875 C-153.21890174 220.64591431 -148.33564281 213.5901592 -143.5 206.5 C-137.98293268 198.41071649 -132.39885204 190.36932722 -126.80078125 182.3359375 C-123.01583013 176.90281884 -119.24374466 171.46158863 -115.5 166 C-110.33805348 158.47010667 -105.12004076 150.9796116 -99.90234375 143.48828125 C-96.08428476 138.0038967 -92.27847717 132.51172358 -88.5 127 C-83.33801536 119.4701325 -78.12004103 111.97961198 -72.90234375 104.48828125 C-69.08428476 99.0038967 -65.27847717 93.51172358 -61.5 88 C-57.02976302 81.4791956 -52.518449 74.98747615 -48 68.5 C-41.63243875 59.35654858 -35.29942334 50.19048639 -29 41 C-22.50481722 31.52391215 -15.98282372 22.06653635 -9.4375 12.625 C-8.73407471 11.60720459 -8.03064941 10.58940918 -7.3059082 9.54077148 C-6.64679443 8.59145752 -5.98768066 7.64214355 -5.30859375 6.6640625 C-4.71876709 5.81279785 -4.12894043 4.9615332 -3.52124023 4.08447266 C-2 2 -2 2 0 0 Z " fill="#FEFEFE" transform="translate(603,258)"/>
</svg>
